<svg xmlns="http://www.w3.org/2000/svg" xmlns:xlink="http://www.w3.org/1999/xlink" id="Layer_1" x="0" y="0" version="1.1" viewBox="0 0 512 512" xml:space="preserve" style="enable-background:new 0 0 512 512"><path style="fill:#e7e8e3" d="M512,402.282c0,16.716-13.55,30.267-30.265,30.267H30.265C13.55,432.549,0,418.996,0,402.282V109.717 c0-16.716,13.55-30.266,30.265-30.266h451.469c16.716,0,30.265,13.551,30.265,30.266v292.565H512z"/><rect style="fill:#34495e" width="512" height="72.014" y="148.135"/><rect style="fill:#fff" width="512" height="44.555" y="220.16"/><path style="opacity:.15;fill:#202121;enable-background:new" d="M21.517,402.282V109.717 c0-16.716,13.552-30.266,30.267-30.266h-21.52C13.55,79.451,0,93.003,0,109.717v292.565c0,16.716,13.55,30.267,30.265,30.267h21.52 C35.07,432.549,21.517,418.996,21.517,402.282z"/><path style="fill:#ea001b" d="M374.957,348.191c0-15.018,6.92-28.418,17.742-37.193c-8.227-6.669-18.705-10.669-30.12-10.669 c-26.433,0-47.861,21.428-47.861,47.862c0,26.434,21.428,47.862,47.861,47.862c11.415,0,21.894-3.999,30.12-10.669 C381.876,376.609,374.957,363.209,374.957,348.191z"/><path style="fill:#f79f1a" d="M422.817,300.329c-11.415,0-21.894,3.999-30.119,10.669c10.824,8.775,17.741,22.175,17.741,37.193 c0,15.018-6.918,28.418-17.741,37.193c8.227,6.669,18.705,10.669,30.119,10.669c26.435,0,47.863-21.428,47.863-47.862 C470.68,321.757,449.252,300.329,422.817,300.329z"/><path style="fill:#ff5f01" d="M410.439,348.191c0-15.018-6.918-28.418-17.741-37.193c-10.822,8.775-17.742,22.175-17.742,37.193 c0,15.018,6.92,28.418,17.742,37.193C403.522,376.609,410.439,363.209,410.439,348.191z"/><g><path style="fill:#fff" d="M160.063,322.723H55.437c-4.611,0-8.348-3.736-8.348-8.348c0-4.611,3.736-8.348,8.348-8.348h104.626 c4.611,0,8.348,3.736,8.348,8.348S164.674,322.723,160.063,322.723z"/><path style="fill:#fff" d="M160.063,357.422H55.437c-4.611,0-8.348-3.736-8.348-8.348s3.736-8.348,8.348-8.348h104.626 c4.611,0,8.348,3.736,8.348,8.348S164.674,357.422,160.063,357.422z"/><path style="fill:#fff" d="M160.063,392.121H55.437c-4.611,0-8.348-3.736-8.348-8.348c0-4.611,3.736-8.348,8.348-8.348h104.626 c4.611,0,8.348,3.736,8.348,8.348C168.411,388.383,164.674,392.121,160.063,392.121z"/></g></svg>